<svg xmlns="http://www.w3.org/2000/svg" viewBox="0 0 512 512">
  <!-- Artist's palette icon for ArtForge -->
  <defs>
    <linearGradient id="paletteGradient" x1="0%" y1="0%" x2="100%" y2="100%">
      <stop offset="0%" style="stop-color:#8B5CF6;stop-opacity:1" />
      <stop offset="100%" style="stop-color:#EC4899;stop-opacity:1" />
    </linearGradient>
  </defs>
  
  <!-- Palette shape -->
  <path fill="url(#paletteGradient)" d="M256 32C132.3 32 32 132.3 32 256c0 52.8 18.3 101.4 48.9 139.7c4.9 6.1 13.8 6.2 18.9.2l35.7-42.3c4.1-4.8 3.5-12-.9-16.1c-19.8-18.4-32.3-44.8-32.3-74.1c0-55.2 44.8-100 100-100s100 44.8 100 100c0 29.3-12.5 55.7-32.3 74.1c-4.4 4.1-5 11.3-.9 16.1l35.7 42.3c5.1 6 14 5.9 18.9-.2C461.7 357.4 480 308.8 480 256C480 132.3 379.7 32 256 32zM160 224a32 32 0 1 0 0-64 32 32 0 1 0 0 64zm64-64a32 32 0 1 0 -64 0 32 32 0 1 0 64 0zm64 0a32 32 0 1 0 0-64 32 32 0 1 0 0 64zm64 64a32 32 0 1 0 -64 0 32 32 0 1 0 64 0z"/>
</svg>

